<svg width="186" height="186" viewBox="0 0 186 186" fill="none" xmlns="http://www.w3.org/2000/svg">
<circle cx="93" cy="93" r="93" fill="white"/>
<path d="M48.3384 99V87.8H52.5304C53.437 87.8 54.189 87.9547 54.7864 88.264C55.3837 88.5733 55.8264 88.9893 56.1144 89.512C56.4024 90.0347 56.5464 90.632 56.5464 91.304C56.5464 91.9227 56.4077 92.4933 56.1304 93.016C55.853 93.5387 55.4157 93.9653 54.8184 94.296C54.221 94.616 53.4584 94.776 52.5304 94.776H50.4984V99H48.3384ZM50.4984 93.032H52.4024C53.0957 93.032 53.5917 92.8773 53.8904 92.568C54.1997 92.248 54.3544 91.8267 54.3544 91.304C54.3544 90.7493 54.1997 90.3227 53.8904 90.024C53.5917 89.7147 53.0957 89.56 52.4024 89.56H50.4984V93.032ZM58.1665 99V87.8H60.3265V97.32H65.2385V99H58.1665ZM66.3364 99L70.4324 87.8H72.8804L76.9604 99H74.6724L71.6484 90.264L68.6084 99H66.3364ZM68.1444 96.456L68.7204 94.776H74.4164L74.9764 96.456H68.1444ZM80 99V95.064L76.224 87.8H78.672L81.312 93.336H80.88L83.504 87.8H85.936L82.16 95.064V99H80ZM94.2419 99L90.1619 87.8H92.4659L95.5699 96.792L98.6899 87.8H100.978L96.8979 99H94.2419ZM102.323 99V87.8H104.483V99H102.323ZM106.682 99V87.8H110.426C111.727 87.8 112.799 88.0347 113.642 88.504C114.495 88.9627 115.125 89.6133 115.53 90.456C115.946 91.288 116.154 92.2693 116.154 93.4C116.154 94.5307 115.946 95.5173 115.53 96.36C115.125 97.192 114.501 97.8427 113.658 98.312C112.815 98.7707 111.738 99 110.426 99H106.682ZM108.842 97.144H110.314C111.231 97.144 111.951 96.9947 112.474 96.696C113.007 96.3973 113.386 95.9707 113.61 95.416C113.834 94.8507 113.946 94.1787 113.946 93.4C113.946 92.6107 113.834 91.9387 113.61 91.384C113.386 90.8187 113.007 90.3867 112.474 90.088C111.951 89.7893 111.231 89.64 110.314 89.64H108.842V97.144ZM117.995 99V87.8H125.355V89.544H120.155V92.472H124.875V94.152H120.155V97.256H125.355V99H117.995ZM132.491 99.192C131.403 99.192 130.443 98.9467 129.611 98.456C128.779 97.9653 128.128 97.288 127.659 96.424C127.189 95.5493 126.955 94.5413 126.955 93.4C126.955 92.2587 127.189 91.256 127.659 90.392C128.128 89.5173 128.779 88.8347 129.611 88.344C130.443 87.8533 131.403 87.608 132.491 87.608C133.589 87.608 134.555 87.8533 135.387 88.344C136.219 88.8347 136.864 89.5173 137.323 90.392C137.792 91.256 138.027 92.2587 138.027 93.4C138.027 94.5413 137.792 95.5493 137.323 96.424C136.864 97.288 136.219 97.9653 135.387 98.456C134.555 98.9467 133.589 99.192 132.491 99.192ZM132.491 97.256C133.173 97.256 133.76 97.1013 134.251 96.792C134.752 96.472 135.141 96.024 135.419 95.448C135.696 94.872 135.835 94.1893 135.835 93.4C135.835 92.6 135.696 91.9173 135.419 91.352C135.141 90.776 134.752 90.3333 134.251 90.024C133.76 89.7147 133.173 89.56 132.491 89.56C131.819 89.56 131.232 89.7147 130.731 90.024C130.229 90.3333 129.84 90.776 129.563 91.352C129.285 91.9173 129.147 92.6 129.147 93.4C129.147 94.1893 129.285 94.872 129.563 95.448C129.84 96.024 130.229 96.472 130.731 96.792C131.232 97.1013 131.819 97.256 132.491 97.256Z" fill="#121212"/>
</svg>
